<svg xmlns="http://www.w3.org/2000/svg" xmlns:xlink="http://www.w3.org/1999/xlink" version="1.1" x="0px" y="0px" viewBox="0 0 85 85" enable-background="new 0 0 50 50" xml:space="preserve" width="50" height="50">
	<path fill="#5CA3D9" d="M30.982,61.549c-0.464,0-0.841-0.376-0.841-0.84V31.573c0-0.464,0.376-0.841,0.841-0.841c0.464,0,0.84,0.376,0.84,0.841  v29.136C31.822,61.173,31.446,61.549,30.982,61.549z"/>
	<path fill="#5CA3D9" d="M30.982,27.277c-0.464,0-0.841-0.376-0.841-0.84V15.791c0-0.464,0.376-0.84,0.841-0.84c0.464,0,0.84,0.376,0.84,0.84v10.646  C31.822,26.901,31.446,27.277,30.982,27.277z"/>
	<path fill="#5CA3D9" d="M38.079,55.293c-0.464,0-0.84-0.377-0.84-0.84V42.312c0-0.464,0.376-0.841,0.84-0.841c0.464,0,0.841,0.376,0.841,0.841  v12.141C38.919,54.916,38.543,55.293,38.079,55.293z"/>
	<path fill="#5CA3D9" d="M38.079,25.713c-0.464,0-0.84-0.376-0.84-0.84V9.534c0-0.464,0.376-0.84,0.84-0.84c0.464,0,0.841,0.376,0.841,0.84v15.338  C38.919,25.337,38.543,25.713,38.079,25.713z"/>
	<path fill="#5CA3D9" d="M44.763,59.331c-0.464,0-0.84-0.376-0.84-0.841V30.826c0-0.464,0.376-0.84,0.84-0.84s0.84,0.376,0.84,0.84V58.49  C45.603,58.955,45.227,59.331,44.763,59.331z"/>
	<path fill="#5CA3D9" d="M44.763,26.53c-0.464,0-0.84-0.376-0.84-0.84V15.044c0-0.464,0.376-0.84,0.84-0.84s0.84,0.376,0.84,0.84V25.69  C45.603,26.154,45.227,26.53,44.763,26.53z"/>
	<path fill="#5CA3D9" d="M58.062,61.362c-0.463,0-0.84-0.376-0.84-0.841V34.375c0-0.464,0.377-0.84,0.84-0.84c0.465,0,0.841,0.376,0.841,0.84v26.147  C58.903,60.986,58.527,61.362,58.062,61.362z"/>
	<path fill="#5CA3D9" d="M58.062,31.667c-0.463,0-0.84-0.376-0.84-0.84V15.604c0-0.464,0.377-0.84,0.84-0.84c0.465,0,0.841,0.376,0.841,0.84v15.222  C58.903,31.291,58.527,31.667,58.062,31.667z"/>
	<path fill="#5CA3D9" d="M51.059,40.561c-0.463,0-0.84-0.376-0.84-0.84V11.916c0-0.464,0.377-0.84,0.84-0.84c0.465,0,0.841,0.376,0.841,0.84v27.805  C51.899,40.185,51.523,40.561,51.059,40.561z"/>
	<path fill="#5CA3D9" d="M51.059,57.674c-0.463,0-0.84-0.377-0.84-0.84v-6.608c0-0.464,0.377-0.841,0.84-0.841c0.465,0,0.841,0.377,0.841,0.841  v6.608C51.899,57.297,51.523,57.674,51.059,57.674z"/>
	<path fill="#FFEF69" d="M44.763,72.256c-7.284,0-15.025-1.984-15.025-5.662c0-0.464,0.376-0.84,0.841-0.84s0.84,0.376,0.84,0.84  c0,1.662,5.077,3.98,13.344,3.98c8.268,0,13.343-2.318,13.343-3.98c0-0.464,0.376-0.84,0.841-0.84c0.464,0,0.84,0.376,0.84,0.84  C59.787,70.271,52.047,72.256,44.763,72.256z"/>
	<g>
		<path fill="#FFEF69" d="M57.105,65.059c-0.146,0-0.297-0.039-0.432-0.12c-0.267-0.159-0.572-0.318-0.908-0.471   c-0.422-0.192-0.609-0.69-0.418-1.112s0.689-0.609,1.113-0.418c0.393,0.178,0.756,0.367,1.078,0.56   c0.397,0.239,0.527,0.755,0.288,1.153C57.67,64.912,57.391,65.059,57.105,65.059z"/>
		<path fill="#FFEF69" d="M36.163,63.6c-0.374,0-0.715-0.251-0.813-0.63c-0.116-0.449,0.154-0.907,0.603-1.024c0.646-0.168,1.333-0.316,2.042-0.444   c0.454-0.081,0.894,0.222,0.976,0.679c0.083,0.457-0.221,0.895-0.678,0.977c-0.667,0.119-1.313,0.26-1.918,0.416   C36.303,63.591,36.232,63.6,36.163,63.6z M53.239,63.568c-0.069,0-0.138-0.008-0.208-0.025c-0.605-0.154-1.251-0.291-1.92-0.408   c-0.457-0.08-0.764-0.516-0.684-0.973c0.081-0.458,0.516-0.765,0.973-0.684c0.711,0.125,1.398,0.271,2.045,0.435   c0.449,0.114,0.722,0.571,0.607,1.021C53.957,63.314,53.614,63.568,53.239,63.568z M41.156,62.77c-0.431,0-0.797-0.328-0.836-0.766   c-0.041-0.463,0.3-0.871,0.763-0.912c0.67-0.059,1.366-0.103,2.065-0.129c0.468-0.029,0.854,0.344,0.872,0.808   s-0.344,0.854-0.808,0.872c-0.671,0.025-1.338,0.066-1.98,0.124C41.206,62.77,41.181,62.77,41.156,62.77z M48.243,62.759   c-0.024,0-0.048-0.001-0.073-0.003c-0.643-0.055-1.309-0.096-1.98-0.119c-0.463-0.016-0.826-0.405-0.81-0.869   c0.016-0.453,0.389-0.811,0.839-0.811c0.01,0,0.02,0,0.03,0c0.699,0.025,1.394,0.066,2.065,0.124   c0.462,0.04,0.805,0.446,0.766,0.909C49.042,62.428,48.676,62.759,48.243,62.759z"/>
		<path fill="#FFEF69" d="M32.305,65.129c-0.281,0-0.555-0.141-0.714-0.396c-0.246-0.394-0.125-0.912,0.269-1.157   c0.322-0.201,0.683-0.395,1.074-0.578c0.42-0.196,0.921-0.014,1.117,0.406c0.197,0.421,0.015,0.921-0.405,1.117   c-0.331,0.154-0.632,0.316-0.897,0.48C32.61,65.088,32.456,65.129,32.305,65.129z"/>
	</g>
	<path fill="#817E77" d="M69.155,65.326c-0.009-0.006-0.015-0.013-0.022-0.018l-6.413-3.848c-0.396-0.24-0.914-0.11-1.153,0.288  c-0.238,0.397-0.109,0.915,0.289,1.153l5.622,3.373l-5.927,8.096H27.975l-5.941-8.117l5.153-3.298  c0.391-0.251,0.505-0.771,0.255-1.161s-0.769-0.504-1.161-0.255l-5.907,3.78c-0.002,0.002-0.005,0.005-0.008,0.008  c-0.336,0.109-0.581,0.422-0.581,0.795v7.261c0,0.183,0.06,0.36,0.169,0.505l6.779,8.995c0.159,0.211,0.407,0.335,0.671,0.335  h34.717c0.265,0,0.513-0.124,0.672-0.335l6.779-8.995c0.109-0.145,0.169-0.322,0.169-0.505v-7.261  C69.741,65.748,69.494,65.434,69.155,65.326z M61.703,81.537h-33.88l-6.357-8.435v-4.777l5.404,7.382  c0.159,0.217,0.411,0.345,0.678,0.345h34.428c0.269,0,0.52-0.128,0.678-0.345l5.406-7.382v4.777L61.703,81.537z"/>
	<g>
		<path fill="#FFEF69" d="M38.079,38.199c-0.464,0-0.84-0.376-0.84-0.84c0-1.565-1.273-2.838-2.838-2.838c-0.464,0-0.841-0.376-0.841-0.84   s0.376-0.84,0.841-0.84c1.565,0,2.838-1.273,2.838-2.837c0-0.464,0.376-0.84,0.84-0.84c0.464,0,0.841,0.376,0.841,0.84   c0,1.564,1.273,2.837,2.838,2.837c0.464,0,0.841,0.376,0.841,0.84s-0.376,0.84-0.841,0.84c-1.565,0-2.838,1.273-2.838,2.838   C38.919,37.823,38.543,38.199,38.079,38.199z M37.022,33.68c0.408,0.292,0.765,0.649,1.056,1.057   c0.292-0.408,0.649-0.765,1.057-1.057c-0.408-0.291-0.765-0.648-1.057-1.056C37.788,33.031,37.43,33.389,37.022,33.68z"/>
	</g>
	<g>
		<path fill="#FFEF69" d="M44.705,12.511c-0.464,0-0.84-0.376-0.84-0.84c0-1.565-1.273-2.838-2.838-2.838c-0.464,0-0.84-0.376-0.84-0.84   s0.376-0.84,0.84-0.84c1.565,0,2.838-1.273,2.838-2.837c0-0.464,0.376-0.84,0.84-0.84s0.841,0.376,0.841,0.84   c0,1.564,1.272,2.837,2.837,2.837c0.465,0,0.842,0.376,0.842,0.84s-0.377,0.84-0.842,0.84c-1.564,0-2.837,1.273-2.837,2.838   C45.546,12.135,45.169,12.511,44.705,12.511z M43.649,7.992c0.407,0.292,0.765,0.649,1.056,1.056   c0.292-0.407,0.648-0.765,1.056-1.056c-0.408-0.291-0.765-0.648-1.056-1.056C44.414,7.344,44.056,7.701,43.649,7.992z"/>
	</g>
	<path fill="#FFEF69" d="M51.059,47.493c-1.308,0-2.372-1.064-2.372-2.372c0-1.309,1.064-2.374,2.372-2.374c1.309,0,2.373,1.064,2.373,2.374  C53.432,46.429,52.367,47.493,51.059,47.493z M51.059,44.428c-0.381,0-0.691,0.311-0.691,0.693c0,0.381,0.311,0.691,0.691,0.691  c0.382,0,0.691-0.311,0.691-0.691C51.75,44.739,51.44,44.428,51.059,44.428z"/>
	<path fill="#817E77" d="M35.791,79.572h-6.023c-0.464,0-0.84-0.377-0.84-0.841s0.376-0.841,0.84-0.841h6.023c0.464,0,0.84,0.377,0.84,0.841  S36.255,79.572,35.791,79.572z"/>
	<path fill="#817E77" d="M59.884,79.572c-0.224,0-0.437-0.09-0.595-0.247c-0.156-0.156-0.246-0.376-0.246-0.594c0-0.224,0.09-0.437,0.246-0.595  c0.314-0.312,0.875-0.312,1.188,0c0.157,0.158,0.247,0.376,0.247,0.595c0,0.218-0.09,0.438-0.247,0.594  C60.321,79.482,60.107,79.572,59.884,79.572z"/>
	<path fill="#817E77" d="M57.082,79.572c-0.219,0-0.438-0.09-0.594-0.247c-0.156-0.156-0.246-0.376-0.246-0.594c0-0.219,0.09-0.437,0.246-0.595  c0.314-0.312,0.874-0.312,1.188,0c0.157,0.158,0.247,0.376,0.247,0.595c0,0.218-0.09,0.438-0.247,0.594  C57.52,79.482,57.301,79.572,57.082,79.572z"/></svg>